#N canvas -8 -8 1536 781 10;
#X obj 406 269 mtof, f 5;
#X obj 396 385 osc~;
#X obj 548 665 *~;
#X obj 685 615 hsl 128 15 0 1 0 0 empty volFatBass vol -2 -8 0 10 -262144
-1 -1 6350 1;
#X obj 394 426 clip~ -1 1;
#X obj 460 385 hsl 128 15 1 2 0 0 empty empty squarisher -2 -8 0 10
-262144 -1 -1 0 1;
#X obj 395 406 *~;
#X obj 393 461 lop~;
#X obj 468 444 hsl 128 15 20 20000 1 0 empty empty lop -2 -8 0 10 -262144
-1 -1 2702 1;
#X obj 276 405 osc~;
#X obj 394 486 *~ 0.5;
#X obj 396 351 line;
#X obj 276 377 line;
#X msg 276 356 \$1 300;
#X msg 396 330 \$1 300;
#X obj 409 182 tabread gamme;
#X obj 409 64 bng 15 250 50 0 empty ledDouble empty 17 7 0 10 -262144
-1 -1;
#X obj 409 81 f;
#X obj 439 82 + 1;
#X floatatom 409 99 5 0 0 0 - - -, f 5;
#X obj 409 116 % 4;
#X obj 409 135 sel 0;
#X floatatom 409 223 5 0 0 0 - - -, f 5;
#X msg 409 159 0;
#X obj 373 40 r reinitChordProg;
#X msg 373 61 -1;
#X obj 112 137 hsl 128 15 0 1 0 0 volFatBass empty vol -2 -8 0 10 -262144
-1 -1 6350 1;
#X obj 682 655 line~;
#X msg 682 634 \$1 20;
#X obj 1039 413 r~ kickDac;
#X obj 1040 434 threshold~;
#X msg 1067 394 set 0 2000 1 2000;
#X obj 1040 453 bng 15 250 50 0 empty empty empty 17 7 0 10 -262144
-1 -1;
#X obj 1040 494 line;
#X msg 1040 473 0.5 \, 1 200;
#X floatatom 465 464 5 0 0 0 - - -, f 5;
#X obj 615 403 loadbang;
#X msg 615 424 1640;
#X obj 554 616 *~;
#X obj 1043 528 hsl 128 15 0 1 0 0 empty empty sidechain -2 -8 0 10
-262144 -1 -1 12700 1;
#X obj 1040 568 line~;
#X msg 1040 547 \$1 20;
#X obj 546 744 s~ dacFatBass;
#X obj 116 173 loadbang;
#X msg 116 194 0.5;
#X obj 548 700 *~;
#X obj 673 714 line~;
#X msg 673 693 \$1 20;
#X obj 746 675 tgl 15 0 empty switchFatBass empty 17 7 0 10 -262144
-1 -1 1 1;
#X obj 276 426 *~ 0.5;
#X obj 329 369 vsl 30 50 0 0.5 0 0 empty empty f1 0 -9 0 10 -262144
-1 -1 4900 1;
#X obj 193 111 tgl 15 0 switchFatBass empty empty 17 7 0 10 -262144
-1 -1 1 1;
#X obj 180 406 osc~;
#X obj 180 378 line;
#X msg 180 357 \$1 300;
#X obj 233 369 vsl 30 50 0 0.33 0 0 empty empty f2 0 -9 0 10 -262144
-1 -1 4900 1;
#X obj 276 316 * 2;
#X floatatom 276 337 5 0 0 0 - - -, f 5;
#X obj 180 316 * 3;
#X obj 180 427 *~ 0.33;
#X msg 216 220 0.33;
#X msg 608 354 1;
#X obj 409 203 - 24;
#X connect 0 0 14 0;
#X connect 0 0 56 0;
#X connect 0 0 58 0;
#X connect 1 0 6 0;
#X connect 2 0 45 0;
#X connect 3 0 28 0;
#X connect 4 0 7 0;
#X connect 5 0 6 1;
#X connect 6 0 4 0;
#X connect 7 0 10 0;
#X connect 8 0 7 1;
#X connect 8 0 35 0;
#X connect 9 0 49 0;
#X connect 10 0 38 0;
#X connect 11 0 1 0;
#X connect 12 0 9 0;
#X connect 13 0 12 0;
#X connect 14 0 11 0;
#X connect 15 0 62 0;
#X connect 16 0 17 0;
#X connect 17 0 18 0;
#X connect 17 0 19 0;
#X connect 18 0 17 1;
#X connect 19 0 20 0;
#X connect 20 0 21 0;
#X connect 21 0 23 0;
#X connect 22 0 0 0;
#X connect 23 0 15 0;
#X connect 24 0 25 0;
#X connect 25 0 17 0;
#X connect 27 0 2 1;
#X connect 28 0 27 0;
#X connect 29 0 30 0;
#X connect 30 0 32 0;
#X connect 31 0 30 0;
#X connect 32 0 34 0;
#X connect 33 0 39 0;
#X connect 34 0 33 0;
#X connect 36 0 37 0;
#X connect 36 0 61 0;
#X connect 37 0 8 0;
#X connect 38 0 2 0;
#X connect 39 0 41 0;
#X connect 40 0 38 1;
#X connect 41 0 40 0;
#X connect 43 0 44 0;
#X connect 43 0 60 0;
#X connect 44 0 26 0;
#X connect 44 0 50 0;
#X connect 45 0 42 0;
#X connect 46 0 45 1;
#X connect 47 0 46 0;
#X connect 48 0 47 0;
#X connect 49 0 7 0;
#X connect 50 0 49 1;
#X connect 52 0 59 0;
#X connect 53 0 52 0;
#X connect 54 0 53 0;
#X connect 55 0 59 1;
#X connect 56 0 57 0;
#X connect 57 0 13 0;
#X connect 58 0 54 0;
#X connect 59 0 7 0;
#X connect 60 0 55 0;
#X connect 61 0 5 0;
#X connect 62 0 22 0;
#X coords 0 -1 1 1 150 60 1 100 100;
