#N canvas -8 -8 1536 781 10;
#X obj 30 83 vsl 15 128 0 1 0 0 squareVol empty square 0 -9 0 10 -262144
-1 -1 7620 1;
#X obj 73 83 vsl 15 128 0 1 0 0 sineVol empty sine 0 -9 0 10 -262144
-1 -1 8890 1;
#X obj 118 82 vsl 15 128 0 1 0 0 sawVol empty triangle/saw 0 -9 0 10
-262144 -1 -1 3810 1;
#X obj 25 249 loadbang;
#X obj 148 85 hradio 15 1 0 2 switchSaw empty empty 0 -8 0 10 -262144
-1 -1 1;
#X obj 150 118 vsl 30 90 0 1 0 0 volBass empty empty 0 -9 0 10 -262144
-1 -1 7120 1;
#X obj 160 32 tgl 30 0 switchBass autoBass on 35 15 0 10 -4034 -1 -1
0 1;
#N canvas -8 -8 1536 781 bass 0;
#X obj 724 357 osc~;
#X obj 724 378 *~;
#X obj 863 267 vsl 15 128 0 1 0 0 empty sineVol sine 0 -9 0 10 -4160
-1 -1 8890 1;
#X obj 762 357 vline~;
#X obj 724 399 *~;
#X floatatom 724 334 5 0 0 0 - - -, f 5;
#X msg 762 336 0 \, 1 5 \, 0 300 5;
#X obj 373 299 osc~;
#X floatatom 373 282 5 0 0 0 - - -, f 5;
#X obj 373 413 *~;
#X obj 546 282 vsl 15 128 0 1 0 0 empty squareVol square 0 -9 0 10
-4160 -1 -1 7620 1;
#X obj 373 320 *~ 10;
#X obj 373 341 clip~ 0 1;
#X obj 373 372 *~;
#X obj 433 342 vline~;
#X msg 433 321 0 \, 1 5 0 \, 0 500 5;
#X floatatom 1111 248 5 0 0 0 - - -, f 5;
#X obj 1111 518 *~;
#X obj 1302 268 vsl 15 128 0 1 0 0 empty sawVol triangle/saw 0 -9 0
10 -4160 -1 -1 3810 1;
#X obj 1111 498 *~;
#X obj 1181 328 vline~;
#X msg 1181 307 0 \, 1 5 0 \, 0 500 5;
#X obj 1111 265 phasor~;
#X obj 1111 285 *~ 2;
#X obj 1111 309 -~ 1;
#X obj 427 498 *~ 0.3;
#X obj 214 194 mtof;
#X obj 1085 228 * 2;
#X obj 1064 431 abs~;
#X obj 1064 480 -~ 1;
#X obj 1063 408 *~;
#X obj 1110 408 *~;
#X obj 1064 456 *~ 1.99;
#N canvas 0 50 1099 505 switch 0;
#X obj 105 121 hradio 15 1 0 2 empty switchSaw empty 0 -8 0 10 -262144
-1 -1 1;
#X obj 114 164 sel 0 1;
#X msg 94 186 1;
#X msg 149 207 0;
#X msg 148 186 1;
#X msg 95 206 0;
#X obj 96 226 tgl 15 0 empty empty empty 17 7 0 10 -262144 -1 -1 0
1;
#X obj 148 226 tgl 15 0 empty empty empty 17 7 0 10 -262144 -1 -1 1
1;
#X obj 96 246 outlet;
#X obj 148 246 outlet;
#X msg 164 65 0;
#X obj 164 46 loadbang;
#X connect 0 0 1 0;
#X connect 1 0 2 0;
#X connect 1 0 3 0;
#X connect 1 1 4 0;
#X connect 1 1 5 0;
#X connect 2 0 6 0;
#X connect 3 0 7 0;
#X connect 4 0 7 0;
#X connect 5 0 6 0;
#X connect 6 0 8 0;
#X connect 7 0 9 0;
#X connect 10 0 0 0;
#X connect 11 0 10 0;
#X coords 0 -1 1 1 40 40 1 100 100;
#X restore 1023 334 pd switch;
#X msg 214 103 0;
#X obj 114 34 loadbang;
#X obj 214 154 - 24;
#X obj 587 86 bng 15 250 50 0 empty bassBang empty 17 7 0 10 -262144
-1 -1;
#X obj 587 106 t b b;
#X obj 427 712 *~;
#X obj 577 619 vsl 30 90 0 1 0 0 empty volBass vol 0 -9 0 10 -262144
-1 -1 7120 1;
#X obj 427 579 lop~;
#X floatatom 456 565 5 0 0 0 - - -, f 5;
#X obj 534 568 hsl 128 15 20 20000 1 0 empty empty empty -2 -8 0 10
-262144 -1 -1 5918 1;
#X obj 531 549 line;
#X obj 531 512 bng 15 250 50 0 empty bassBang empty 17 7 0 10 -262144
-1 -1;
#X obj 373 256 *;
#X obj 411 199 vsl 30 50 0.99 1.01 0 0 empty empty empty 0 -9 0 10
-257985 -1 -1 3675 1;
#X floatatom 411 257 5 0 0 0 - - -, f 5;
#X obj 724 315 *;
#X obj 782 258 vsl 30 50 0.99 1.01 0 0 empty empty empty 0 -9 0 10
-257985 -1 -1 2450 1;
#X floatatom 782 316 5 0 0 0 - - -, f 5;
#X obj 1085 206 *;
#X obj 1125 149 vsl 30 50 0.99 1.01 0 0 empty empty empty 0 -9 0 10
-257985 -1 -1 1225 1;
#X floatatom 1125 207 0 0 0 0 - - -;
#X obj 427 680 *~;
#X obj 487 656 tgl 15 0 empty switchBass on 17 7 0 10 -262144 -1 -1
0 1;
#X obj 427 733 outlet~;
#X obj 587 57 inlet;
#X obj 215 41 random 100;
#X obj 214 175 +;
#X floatatom 310 157 5 0 0 0 - - -, f 5;
#X obj 411 157 loadbang;
#X msg 411 178 1.005;
#X obj 781 215 loadbang;
#X msg 781 236 1;
#X obj 1125 106 loadbang;
#X msg 1125 127 0.995;
#X msg 531 530 3000 \, 500 200;
#X obj 547 224 loadbang;
#X obj 866 215 loadbang;
#X obj 1305 215 loadbang;
#X msg 547 245 0.6;
#X msg 866 236 0.7;
#X msg 1305 236 0.3;
#X msg 266 104 1;
#X msg 311 103 2;
#X obj 214 133 tabread Bass;
#X obj 266 83 moses 70;
#X obj 215 62 moses 50;
#X connect 0 0 1 0;
#X connect 1 0 4 0;
#X connect 2 0 4 1;
#X connect 3 0 1 1;
#X connect 4 0 25 0;
#X connect 5 0 0 0;
#X connect 6 0 3 0;
#X connect 7 0 11 0;
#X connect 8 0 7 0;
#X connect 9 0 25 0;
#X connect 10 0 9 1;
#X connect 11 0 12 0;
#X connect 12 0 13 0;
#X connect 13 0 9 0;
#X connect 14 0 13 1;
#X connect 15 0 14 0;
#X connect 16 0 22 0;
#X connect 17 0 25 0;
#X connect 18 0 17 1;
#X connect 19 0 17 0;
#X connect 20 0 19 1;
#X connect 21 0 20 0;
#X connect 22 0 23 0;
#X connect 23 0 24 0;
#X connect 24 0 30 0;
#X connect 24 0 31 0;
#X connect 25 0 41 0;
#X connect 26 0 46 0;
#X connect 26 0 49 0;
#X connect 26 0 52 0;
#X connect 27 0 16 0;
#X connect 28 0 32 0;
#X connect 29 0 19 0;
#X connect 30 0 28 0;
#X connect 31 0 19 0;
#X connect 32 0 29 0;
#X connect 33 0 30 1;
#X connect 33 1 31 1;
#X connect 34 0 77 0;
#X connect 35 0 34 0;
#X connect 36 0 60 0;
#X connect 37 0 38 0;
#X connect 38 0 15 0;
#X connect 38 0 6 0;
#X connect 38 0 21 0;
#X connect 38 1 59 0;
#X connect 39 0 57 0;
#X connect 40 0 39 1;
#X connect 41 0 55 0;
#X connect 42 0 41 1;
#X connect 43 0 42 0;
#X connect 44 0 43 0;
#X connect 45 0 68 0;
#X connect 46 0 8 0;
#X connect 47 0 46 1;
#X connect 47 0 48 0;
#X connect 49 0 5 0;
#X connect 50 0 49 1;
#X connect 50 0 51 0;
#X connect 52 0 27 0;
#X connect 53 0 52 1;
#X connect 53 0 54 0;
#X connect 55 0 39 0;
#X connect 56 0 55 1;
#X connect 58 0 37 0;
#X connect 59 0 79 0;
#X connect 60 0 26 0;
#X connect 62 0 63 0;
#X connect 63 0 47 0;
#X connect 64 0 65 0;
#X connect 65 0 50 0;
#X connect 66 0 67 0;
#X connect 67 0 53 0;
#X connect 68 0 44 0;
#X connect 69 0 72 0;
#X connect 70 0 73 0;
#X connect 71 0 74 0;
#X connect 72 0 10 0;
#X connect 73 0 2 0;
#X connect 74 0 18 0;
#X connect 75 0 77 0;
#X connect 76 0 77 0;
#X connect 77 0 36 0;
#X connect 77 0 61 0;
#X connect 78 0 75 0;
#X connect 78 1 76 0;
#X connect 79 0 34 0;
#X connect 79 1 78 0;
#X restore 419 704 pd bass;
#X obj 164 639 bng 50 250 50 0 bassBang empty empty 17 7 0 10 -262144
-1 -1;
#X obj 359 29 r tempoMilli;
#X floatatom 359 50 5 0 0 0 - - -, f 5;
#X obj 322 70 tgl 15 0 empty on/off empty 17 7 0 10 -262144 -1 -1 1
1;
#X obj 361 110 metro 1000;
#X obj 422 138 bng 15 250 50 0 empty empty empty 17 7 0 10 -262144
-1 -1;
#X floatatom 359 91 5 0 0 0 - - -, f 5;
#X obj 359 70 / 4;
#X obj 310 276 hradio 15 1 0 16 empty empty empty 0 -8 0 10 -262144
-1 -1 13;
#X obj 310 296 sel 0 1 2 3 4 5 6 7 8 9 10 11 12 13 14 15;
#X obj 422 158 f;
#X obj 452 159 + 1;
#X obj 422 179 % 16;
#X floatatom 422 200 5 0 0 0 - - -, f 5;
#X obj 164 490 spigot;
#X obj 913 311 tgl 15 0 empty empty empty 17 7 0 10 -257985 -1 -1 0
1;
#X obj 210 490 spigot;
#X obj 931 311 tgl 15 0 empty empty empty 17 7 0 10 -262144 -1 -1 0
1;
#X obj 256 490 spigot;
#X obj 949 311 tgl 15 0 empty empty empty 17 7 0 10 -262144 -1 -1 1
1;
#X obj 302 490 spigot;
#X obj 967 311 tgl 15 0 empty empty empty 17 7 0 10 -262144 -1 -1 1
1;
#X obj 348 490 spigot;
#X obj 985 311 tgl 15 0 empty empty empty 17 7 0 10 -257985 -1 -1 0
1;
#X obj 394 490 spigot;
#X obj 1003 311 tgl 15 0 empty empty empty 17 7 0 10 -262144 -1 -1
1 1;
#X obj 438 490 spigot;
#X obj 1021 311 tgl 15 0 empty empty empty 17 7 0 10 -262144 -1 -1
0 1;
#X obj 484 490 spigot;
#X obj 1039 311 tgl 15 0 empty empty empty 17 7 0 10 -262144 -1 -1
1 1;
#X obj 529 490 spigot;
#X obj 1057 311 tgl 15 0 empty empty empty 17 7 0 10 -257985 -1 -1
1 1;
#X obj 575 490 spigot;
#X obj 1075 311 tgl 15 0 empty empty empty 17 7 0 10 -262144 -1 -1
0 1;
#X obj 621 490 spigot;
#X obj 1094 311 tgl 15 0 empty empty empty 17 7 0 10 -262144 -1 -1
0 1;
#X obj 667 490 spigot;
#X obj 1112 311 tgl 15 0 empty empty empty 17 7 0 10 -262144 -1 -1
1 1;
#X obj 713 490 spigot;
#X obj 1130 311 tgl 15 0 empty empty empty 17 7 0 10 -257985 -1 -1
0 1;
#X obj 759 490 spigot;
#X obj 1148 311 tgl 15 0 empty empty empty 17 7 0 10 -262144 -1 -1
1 1;
#X obj 803 490 spigot;
#X obj 1166 311 tgl 15 0 empty empty empty 17 7 0 10 -262144 -1 -1
0 1;
#X obj 849 490 spigot;
#X obj 1185 311 tgl 15 0 empty empty empty 17 7 0 10 -262144 -1 -1
0 1;
#X msg 303 153 -1;
#X floatatom 280 92 5 0 0 0 - - -, f 5;
#X obj 303 134 sel 0;
#X obj 120 32 bng 30 250 50 0 bassBang empty empty 17 7 0 10 -262144
-1 -1;
#X obj 987 56 bng 15 250 50 0 empty empty empty 17 7 0 10 -262144 -1
-1;
#X obj 419 725 s~ bassDac;
#X msg 25 270 0.6;
#X msg 54 270 0.7;
#X msg 84 270 0.3;
#X msg 114 270 1;
#X msg 144 270 0.8;
#X msg 1017 229 1 1 0 1 1 0 0 0 1 1 0 0 1 0 0 0;
#X msg 801 228 0 0 1 1 0 1 0 1 1 0 0 1 0 1 0 0;
#X obj 987 74 rand 15;
#X obj 920 263 unpack f f f f f f f f f f f f f f f f;
#X obj 892 126 f;
#X obj 922 127 + 1;
#X floatatom 892 170 5 0 0 0 - - -, f 5;
#X obj 892 149 % 2;
#X obj 892 104 sel 15;
#X obj 987 37 sel 15;
#X obj 987 95 nbx 2 30 -1e+037 1e+037 0 0 empty empty empty 0 -8 0
40 -262144 -1 -1 3 256;
#X obj 892 190 sel 0 1;
#X connect 3 0 60 0;
#X connect 3 0 61 0;
#X connect 3 0 62 0;
#X connect 3 0 63 0;
#X connect 3 0 64 0;
#X connect 7 0 59 0;
#X connect 9 0 10 0;
#X connect 10 0 15 0;
#X connect 11 0 12 0;
#X connect 11 0 55 0;
#X connect 11 0 56 0;
#X connect 12 0 13 0;
#X connect 13 0 18 0;
#X connect 14 0 12 1;
#X connect 15 0 14 0;
#X connect 16 0 17 0;
#X connect 17 0 22 0;
#X connect 17 1 24 0;
#X connect 17 2 26 0;
#X connect 17 3 28 0;
#X connect 17 4 30 0;
#X connect 17 5 32 0;
#X connect 17 6 34 0;
#X connect 17 7 36 0;
#X connect 17 8 38 0;
#X connect 17 9 40 0;
#X connect 17 10 42 0;
#X connect 17 11 44 0;
#X connect 17 12 46 0;
#X connect 17 13 48 0;
#X connect 17 14 50 0;
#X connect 17 15 52 0;
#X connect 18 0 19 0;
#X connect 18 0 20 0;
#X connect 19 0 18 1;
#X connect 20 0 21 0;
#X connect 21 0 16 0;
#X connect 21 0 73 0;
#X connect 21 0 74 0;
#X connect 22 0 8 0;
#X connect 23 0 22 1;
#X connect 24 0 8 0;
#X connect 25 0 24 1;
#X connect 26 0 8 0;
#X connect 27 0 26 1;
#X connect 28 0 8 0;
#X connect 29 0 28 1;
#X connect 30 0 8 0;
#X connect 31 0 30 1;
#X connect 32 0 8 0;
#X connect 33 0 32 1;
#X connect 34 0 8 0;
#X connect 35 0 34 1;
#X connect 36 0 8 0;
#X connect 37 0 36 1;
#X connect 38 0 8 0;
#X connect 39 0 38 1;
#X connect 40 0 8 0;
#X connect 41 0 40 1;
#X connect 42 0 8 0;
#X connect 43 0 42 1;
#X connect 44 0 8 0;
#X connect 45 0 44 1;
#X connect 46 0 8 0;
#X connect 47 0 46 1;
#X connect 48 0 8 0;
#X connect 49 0 48 1;
#X connect 50 0 8 0;
#X connect 51 0 50 1;
#X connect 52 0 8 0;
#X connect 53 0 52 1;
#X connect 54 0 18 0;
#X connect 56 0 54 0;
#X connect 58 0 67 0;
#X connect 60 0 0 0;
#X connect 61 0 1 0;
#X connect 62 0 2 0;
#X connect 63 0 4 0;
#X connect 64 0 5 0;
#X connect 65 0 68 0;
#X connect 66 0 68 0;
#X connect 67 0 75 0;
#X connect 68 0 23 0;
#X connect 68 1 25 0;
#X connect 68 2 27 0;
#X connect 68 3 29 0;
#X connect 68 4 31 0;
#X connect 68 5 33 0;
#X connect 68 6 35 0;
#X connect 68 7 37 0;
#X connect 68 8 39 0;
#X connect 68 9 41 0;
#X connect 68 10 43 0;
#X connect 68 11 45 0;
#X connect 68 12 47 0;
#X connect 68 13 49 0;
#X connect 68 14 51 0;
#X connect 68 15 53 0;
#X connect 69 0 70 0;
#X connect 69 0 72 0;
#X connect 70 0 69 1;
#X connect 71 0 76 0;
#X connect 72 0 71 0;
#X connect 73 0 69 0;
#X connect 74 0 58 0;
#X connect 75 0 73 1;
#X connect 76 0 66 0;
#X connect 76 1 65 0;
#X coords 0 -1 1 1 200 200 1 20 20;
