#N canvas -19 37 1536 781 10;
#X obj 52 582 noise~;
#X obj 185 720 *~;
#X obj 261 584 vsl 15 128 0 1 0 0 empty volHihat empty 0 -9 0 10 -262144
-1 -1 8890 1;
#X obj 72 606 bp~, f 8;
#X floatatom 55 450 10 0 0 0 - - -, f 10;
#X floatatom 117 583 5 0 0 0 - - -, f 5;
#X obj 58 431 hsl 128 15 5000 20000 1 0 empty empty freq 10 7 0 10
-262144 -1 -1 6222 1;
#X obj 133 634 *~;
#X obj 491 548 vline~;
#X obj 513 505 bng 15 50 20 0 ledHihat empty empty 17 7 0 10 -262144
-1 -1;
#X obj 484 465 tgl 15 0 empty on/off empty 17 7 0 10 -262144 -1 -1
0 1;
#X msg 491 525 1 2 \, 0 20 5;
#X obj 462 82 f;
#X obj 494 82 + 1;
#X floatatom 462 124 5 0 0 0 - - -, f 5;
#X obj 513 480 metro;
#X obj 462 103 % 8;
#X obj 55 389 loadbang;
#X msg 55 410 9861;
#X obj 159 575 loadbang;
#X obj 96 35 vsl 15 128 0 1 0 0 volHihat empty vol 0 -9 0 10 -262144
-1 -1 8890 1;
#X obj 72 46 bng 15 50 20 0 empty ledHihat empty 17 7 0 10 -262144
-1 -1;
#X obj 36 45 tgl 20 0 muteHihat autoHihat ON 0 30 0 10 -262144 -1 -1
1 1;
#X floatatom 261 720 5 0 0 0 - - -, f 5;
#X obj 233 670 tgl 15 0 empty muteHihat empty 17 7 0 10 -262144 -1
-1 1 1;
#X obj 184 694 *~;
#X floatatom 224 283 5 0 0 0 - - -, f 5;
#X obj 344 343 / 4;
#X floatatom 344 364 5 0 0 0 croches - -, f 5;
#X floatatom 439 374 5 0 0 0 tercroche - -, f 5;
#X floatatom 534 369 5 0 0 0 doubles - -, f 5;
#X obj 439 353 / 6;
#X obj 534 348 / 8;
#X obj 345 405 f;
#X floatatom 345 426 5 0 0 0 - - -, f 5;
#X obj 316 407 bng 15 50 20 0 empty empty empty 17 7 0 10 -262144 -1
-1;
#X obj 424 403 f;
#X floatatom 424 424 5 0 0 0 - - -, f 5;
#X obj 400 403 bng 15 50 20 0 empty empty empty 17 7 0 10 -262144 -1
-1;
#X obj 536 405 f;
#X floatatom 536 426 5 0 0 0 - - -, f 5;
#X obj 496 410 bng 15 50 20 0 empty empty empty 17 7 0 10 -262144 -1
-1;
#X obj 224 255 r tempoMilli;
#X floatatom 637 369 5 0 0 0 terdouble - -, f 5;
#X obj 639 405 f;
#X floatatom 639 426 5 0 0 0 - - -, f 5;
#X obj 599 410 bng 15 50 20 0 empty empty empty 17 7 0 10 -262144 -1
-1;
#X obj 462 151 moses 6;
#X obj 501 202 random 2;
#X obj 501 221 sel 0 1;
#X obj 637 348 / 12;
#X obj 148 20 loadbang;
#X msg 148 41 0.7;
#X obj 501 178 bng 15 250 50 0 empty empty empty 17 7 0 10 -262144
-1 -1;
#X obj 311 82 r reinitChordProg;
#X msg 428 82 -1;
#X floatatom 767 369 5 0 0 0 triples - -, f 5;
#X obj 769 405 f;
#X floatatom 769 426 5 0 0 0 - - -, f 5;
#X obj 729 410 bng 15 50 20 0 empty empty empty 17 7 0 10 -262144 -1
-1;
#X obj 767 348 / 16;
#X obj 94 513 +;
#X floatatom 94 534 5 0 0 0 - - -, f 5;
#X obj 217 428 bng 15 50 20 0 empty ledHihat empty 17 7 0 10 -262144
-1 -1;
#X obj 55 470 - 500;
#X obj 217 448 t b b;
#X obj 520 259 sel 0 1 2 3;
#X obj 505 240 random 4;
#X obj 136 483 random 2000;
#X msg 159 596 120;
#X obj 858 151 sel 3;
#X obj 858 172 random 100;
#X obj 903 247 random 3;
#X obj 903 268 sel 0 1 2;
#X obj 858 217 bng 15 250 50 0 empty empty empty 17 7 0 10 -262144
-1 -1;
#X obj 903 293 bng 15 250 50 0 empty empty empty 17 7 0 10 -262144
-1 -1;
#X obj 920 293 bng 15 250 50 0 empty empty empty 17 7 0 10 -262144
-1 -1;
#X obj 937 293 bng 15 250 50 0 empty empty empty 17 7 0 10 -262144
-1 -1;
#X obj 903 217 bng 15 250 50 0 empty empty empty 17 7 0 10 -262144
-1 -1;
#X obj 858 193 moses 50;
#X obj 185 741 s~ hihatDac;
#X obj 675 702 outlet~;
#X obj 590 658 *~;
#X obj 664 589 vsl 15 60 0 1 0 0 empty hihatRev empty 0 -9 0 10 -262144
-1 -1 2950 1;
#X obj 72 71 vsl 15 80 0 1 0 0 hihatRev empty send_reverb -50 90 0
10 -262144 -1 -1 3950 1;
#X obj 39 186 loadbang;
#X msg 39 207 0.5;
#X obj 462 64 bng 15 50 20 0 empty ledDouble empty 17 7 0 10 -262144
-1 -1;
#X connect 0 0 3 0;
#X connect 1 0 80 0;
#X connect 1 0 82 0;
#X connect 2 0 23 0;
#X connect 2 0 1 1;
#X connect 3 0 7 0;
#X connect 4 0 64 0;
#X connect 5 0 3 2;
#X connect 6 0 4 0;
#X connect 7 0 25 0;
#X connect 8 0 7 1;
#X connect 9 0 11 0;
#X connect 10 0 15 0;
#X connect 11 0 8 0;
#X connect 12 0 13 0;
#X connect 12 0 16 0;
#X connect 13 0 12 1;
#X connect 14 0 47 0;
#X connect 14 0 70 0;
#X connect 15 0 9 0;
#X connect 16 0 14 0;
#X connect 17 0 18 0;
#X connect 18 0 6 0;
#X connect 19 0 69 0;
#X connect 24 0 25 1;
#X connect 25 0 1 0;
#X connect 26 0 27 0;
#X connect 26 0 31 0;
#X connect 26 0 32 0;
#X connect 26 0 50 0;
#X connect 26 0 60 0;
#X connect 27 0 28 0;
#X connect 28 0 33 1;
#X connect 29 0 36 1;
#X connect 30 0 39 1;
#X connect 31 0 29 0;
#X connect 32 0 30 0;
#X connect 33 0 34 0;
#X connect 34 0 15 1;
#X connect 35 0 33 0;
#X connect 36 0 37 0;
#X connect 37 0 15 1;
#X connect 38 0 36 0;
#X connect 39 0 40 0;
#X connect 40 0 15 1;
#X connect 41 0 39 0;
#X connect 42 0 26 0;
#X connect 43 0 44 1;
#X connect 44 0 45 0;
#X connect 45 0 15 1;
#X connect 46 0 44 0;
#X connect 47 0 35 0;
#X connect 47 1 53 0;
#X connect 48 0 49 0;
#X connect 49 0 67 0;
#X connect 49 0 67 0;
#X connect 49 1 67 0;
#X connect 49 1 67 0;
#X connect 50 0 43 0;
#X connect 51 0 52 0;
#X connect 52 0 20 0;
#X connect 53 0 48 0;
#X connect 54 0 55 0;
#X connect 55 0 12 0;
#X connect 56 0 57 1;
#X connect 57 0 58 0;
#X connect 58 0 15 1;
#X connect 59 0 57 0;
#X connect 60 0 56 0;
#X connect 61 0 62 0;
#X connect 62 0 3 1;
#X connect 63 0 65 0;
#X connect 64 0 61 0;
#X connect 65 0 4 0;
#X connect 65 1 68 0;
#X connect 66 0 41 0;
#X connect 66 1 46 0;
#X connect 66 2 59 0;
#X connect 66 3 35 0;
#X connect 67 0 66 0;
#X connect 67 0 66 0;
#X connect 68 0 61 1;
#X connect 69 0 5 0;
#X connect 70 0 71 0;
#X connect 71 0 79 0;
#X connect 72 0 73 0;
#X connect 73 0 75 0;
#X connect 73 1 76 0;
#X connect 73 2 77 0;
#X connect 74 0 35 0;
#X connect 75 0 41 0;
#X connect 76 0 46 0;
#X connect 77 0 59 0;
#X connect 78 0 72 0;
#X connect 79 0 74 0;
#X connect 79 1 78 0;
#X connect 82 0 81 0;
#X connect 83 0 82 1;
#X connect 85 0 86 0;
#X connect 86 0 84 0;
#X connect 87 0 12 0;
#X coords 0 0 1 1 100 150 1 20 20;
