#N canvas -8 -8 1536 781 10;
#X obj 480 11 tgl 15 0 empty on/off empty 17 7 0 10 -262144 -1 -1 1
1;
#X obj 480 31 metro;
#X obj 480 52 f;
#X obj 520 53 + 1;
#X obj 507 11 nbx 5 14 -1e+037 1e+037 0 0 empty empty empty 0 -8 0
10 -262144 -1 -1 249.016 256;
#X obj 480 103 % 16;
#X floatatom 552 104 5 0 0 0 - - -, f 5;
#X floatatom 480 124 5 0 0 0 - - -, f 5;
#X obj 480 166 hradio 15 1 0 16 empty empty empty 0 -8 0 10 -262144
-1 -1 4;
#X obj 480 186 sel 0 1 2 3 4 5 6 7 8 9 10 11 12 13 14 15;
#X obj 514 553 f;
#X obj 531 415 vsl 15 128 0 1 0 0 empty empty empty 0 -9 0 10 -159808
-1 -1 12700 1;
#X obj 544 553 f;
#X obj 561 415 vsl 15 128 0 1 0 0 empty empty empty 0 -9 0 10 -262144
-1 -1 0 1;
#X obj 574 553 f;
#X obj 591 415 vsl 15 128 0 1 0 0 empty empty empty 0 -9 0 10 -262144
-1 -1 0 1;
#X obj 604 553 f;
#X obj 621 415 vsl 15 128 0 1 0 0 empty empty empty 0 -9 0 10 -262144
-1 -1 0 1;
#X obj 634 553 f;
#X obj 651 415 vsl 15 128 0 1 0 0 empty empty empty 0 -9 0 10 -159808
-1 -1 12700 1;
#X obj 664 553 f;
#X obj 681 415 vsl 15 128 0 1 0 0 empty empty empty 0 -9 0 10 -262144
-1 -1 0 1;
#X obj 694 553 f;
#X obj 711 415 vsl 15 128 0 1 0 0 empty empty empty 0 -9 0 10 -262144
-1 -1 6350 1;
#X obj 724 553 f;
#X obj 741 415 vsl 15 128 0 1 0 0 empty empty empty 0 -9 0 10 -262144
-1 -1 0 1;
#X obj 754 553 f;
#X obj 771 415 vsl 15 128 0 1 0 0 empty empty empty 0 -9 0 10 -159808
-1 -1 0 1;
#X obj 784 553 f;
#X obj 801 415 vsl 15 128 0 1 0 0 empty empty empty 0 -9 0 10 -262144
-1 -1 12700 1;
#X obj 814 553 f;
#X obj 831 415 vsl 15 128 0 1 0 0 empty empty empty 0 -9 0 10 -262144
-1 -1 0 1;
#X obj 844 553 f;
#X obj 861 415 vsl 15 128 0 1 0 0 empty empty empty 0 -9 0 10 -262144
-1 -1 0 1;
#X obj 874 553 f;
#X obj 891 415 vsl 15 128 0 1 0 0 empty empty empty 0 -9 0 10 -159808
-1 -1 12700 1;
#X obj 904 553 f;
#X obj 921 415 vsl 15 128 0 1 0 0 empty empty empty 0 -9 0 10 -262144
-1 -1 0 1;
#X obj 934 553 f;
#X obj 951 415 vsl 15 128 0 1 0 0 empty empty empty 0 -9 0 10 -262144
-1 -1 6350 1;
#X obj 964 553 f;
#X obj 981 415 vsl 15 128 0 1 0 0 empty empty empty 0 -9 0 10 -262144
-1 -1 6350 1;
#X obj 801 728 *~;
#X obj 819 704 hsl 128 15 0 1 0 0 empty volKick empty -2 -8 0 10 -262144
-1 -1 8890 1;
#X obj 331 580 osc~;
#X obj 331 601 *~;
#X obj 369 552 vline~;
#X msg 369 531 1 5 \, 0 20 50;
#X obj 210 325 bng 15 50 20 0 empty empty empty 17 7 0 10 -262144 -1
-1;
#X obj 265 551 line;
#X msg 333 554 0;
#X obj 29 426 noise~;
#X obj 29 470 bp~, f 8;
#X floatatom 74 435 5 0 0 0 - - -, f 5;
#X floatatom 118 428 5 0 0 0 - - -, f 5;
#X obj 28 647 *~;
#X obj 69 616 hsl 128 15 0 1 0 0 empty empty empty -2 -8 0 10 -262144
-1 -1 11430 1;
#X obj 83 542 vline~;
#X obj 29 581 *~;
#X obj 29 489 bp~, f 8;
#X obj 145 354 bng 15 50 20 0 empty empty empty 17 7 0 10 -262144 -1
-1;
#X obj 367 477 bng 15 250 50 0 empty empty empty 17 7 0 10 -262144
-1 -1;
#X obj 74 405 line;
#X obj 774 675 *~;
#X obj 160 407 loadbang;
#X msg 160 428 3;
#X obj 786 69 r tempoMilli;
#X floatatom 786 90 5 0 0 0 - - -, f 5;
#X obj 786 110 / 4;
#X obj 318 30 r reinitChordProg;
#X msg 430 29 -1;
#X obj 34 77 hsl 128 15 0 1 0 0 volKick empty vol -2 -8 0 10 -262144
-1 -1 8890 1;
#X obj 118 36 tgl 30 0 kickSwitch autoSwitchKick ON 35 7 0 10 -4160
-1 -1 1 1;
#N canvas -8 -8 1536 781 randomKick 0;
#X obj 57 82 inlet;
#X floatatom 47 298 5 0 0 0 - - -, f 5;
#X obj 57 101 sel 0;
#X obj 47 189 random 100;
#X msg 47 231 0;
#X msg 92 250 0.5;
#X msg 137 250 1;
#X obj 47 320 outlet;
#X floatatom 166 297 5 0 0 0 - - -, f 5;
#X obj 166 188 random 100;
#X msg 166 230 0;
#X msg 211 249 0.5;
#X msg 256 249 1;
#X obj 166 317 outlet;
#X obj 47 210 moses 0;
#X obj 92 230 moses 0;
#X floatatom 286 296 5 0 0 0 - - -, f 5;
#X obj 286 187 random 100;
#X msg 286 229 0;
#X msg 331 248 0.5;
#X msg 376 248 1;
#X obj 286 318 outlet;
#X floatatom 409 296 5 0 0 0 - - -, f 5;
#X obj 409 187 random 100;
#X msg 409 229 0;
#X msg 454 248 0.5;
#X msg 499 248 1;
#X obj 409 316 outlet;
#X obj 111 320 vsl 15 50 0 1 0 0 empty empty empty 0 -9 0 10 -45076
-257985 -1 4900 1;
#X obj 231 320 vsl 15 50 0 1 0 0 empty empty empty 0 -9 0 10 -159808
-257985 -1 0 1;
#X obj 343 320 vsl 15 50 0 1 0 0 empty empty empty 0 -9 0 10 -159808
-257985 -1 0 1;
#X obj 467 321 vsl 15 50 0 1 0 0 empty empty empty 0 -9 0 10 -159808
-257985 -1 0 1;
#X obj 331 228 moses 100;
#X obj 454 228 moses 100;
#X floatatom 529 298 5 0 0 0 - - -, f 5;
#X obj 529 189 random 100;
#X msg 529 231 0;
#X msg 574 250 0.5;
#X msg 619 250 1;
#X obj 529 320 outlet;
#X floatatom 650 297 5 0 0 0 - - -, f 5;
#X obj 650 188 random 100;
#X msg 650 230 0;
#X msg 695 249 0.5;
#X msg 740 249 1;
#X obj 650 317 outlet;
#X floatatom 774 296 5 0 0 0 - - -, f 5;
#X obj 774 187 random 100;
#X msg 774 229 0;
#X msg 819 248 0.5;
#X msg 864 248 1;
#X obj 774 318 outlet;
#X floatatom 896 295 5 0 0 0 - - -, f 5;
#X msg 896 228 0;
#X msg 941 247 0.5;
#X msg 986 247 1;
#X obj 896 315 outlet;
#X obj 593 320 vsl 15 50 0 1 0 0 empty empty empty 0 -9 0 10 -45076
-257985 -1 4900 1;
#X obj 715 320 vsl 15 50 0 1 0 0 empty empty empty 0 -9 0 10 -159808
-257985 -1 0 1;
#X obj 831 320 vsl 15 50 0 1 0 0 empty empty empty 0 -9 0 10 -159808
-257985 -1 2450 1;
#X obj 954 320 vsl 15 50 0 1 0 0 empty empty empty 0 -9 0 10 -159808
-257985 -1 0 1;
#X obj 819 228 moses 100;
#X obj 529 210 moses 0;
#X obj 574 230 moses 0;
#X obj 896 187 random 100;
#X text 301 101 1;
#X text 322 101 2;
#X text 346 101 3;
#X text 370 100 4;
#X text 394 100 5;
#X text 418 100 6;
#X text 442 100 7;
#X text 466 100 8;
#X text 490 100 9;
#X text 511 99 10;
#X text 535 99 11;
#X text 559 99 12;
#X text 582 99 13;
#X text 605 99 14;
#X text 629 99 15;
#X text 653 99 16;
#X floatatom 43 545 5 0 0 0 - - -, f 5;
#X msg 43 478 0;
#X msg 88 497 0.5;
#X msg 133 497 1;
#X obj 101 570 vsl 15 50 0 1 0 0 empty empty empty 0 -9 0 10 -45076
-257985 -1 0 1;
#X obj 43 437 random 100;
#X obj 1044 689 outlet;
#X floatatom 163 545 5 0 0 0 - - -, f 5;
#X msg 163 478 0;
#X msg 208 497 0.5;
#X msg 253 497 1;
#X obj 221 570 vsl 15 50 0 1 0 0 empty empty empty 0 -9 0 10 -159808
-257985 -1 4900 1;
#X obj 163 437 random 100;
#X floatatom 283 545 5 0 0 0 - - -, f 5;
#X msg 283 478 0;
#X msg 328 497 0.5;
#X msg 373 497 1;
#X obj 341 570 vsl 15 50 0 1 0 0 empty empty empty 0 -9 0 10 -159808
-257985 -1 0 1;
#X obj 283 437 random 100;
#X floatatom 403 545 5 0 0 0 - - -, f 5;
#X msg 403 478 0;
#X msg 448 497 0.5;
#X msg 493 497 1;
#X obj 461 570 vsl 15 50 0 1 0 0 empty empty empty 0 -9 0 10 -159808
-257985 -1 0 1;
#X obj 403 457 moses 80;
#X obj 448 477 moses 100;
#X obj 403 437 random 100;
#X floatatom 534 545 5 0 0 0 - - -, f 5;
#X msg 534 478 0;
#X msg 579 497 0.5;
#X msg 624 497 1;
#X obj 592 570 vsl 15 50 0 1 0 0 empty empty empty 0 -9 0 10 -45076
-257985 -1 4900 1;
#X obj 534 437 random 100;
#X floatatom 654 545 5 0 0 0 - - -, f 5;
#X msg 654 478 0;
#X msg 699 497 0.5;
#X msg 744 497 1;
#X obj 712 570 vsl 15 50 0 1 0 0 empty empty empty 0 -9 0 10 -159808
-257985 -1 0 1;
#X obj 654 437 random 100;
#X floatatom 774 545 5 0 0 0 - - -, f 5;
#X msg 774 478 0;
#X msg 819 497 0.5;
#X msg 864 497 1;
#X obj 832 570 vsl 15 50 0 1 0 0 empty empty empty 0 -9 0 10 -159808
-257985 -1 2450 1;
#X obj 774 437 random 100;
#X floatatom 894 545 5 0 0 0 - - -, f 5;
#X msg 894 478 0;
#X msg 939 497 0.5;
#X msg 984 497 1;
#X obj 952 570 vsl 15 50 0 1 0 0 empty empty empty 0 -9 0 10 -159808
-257985 -1 2450 1;
#X obj 939 477 moses 100;
#X obj 894 437 random 100;
#X obj 1084 689 outlet;
#X obj 1124 689 outlet;
#X obj 1164 689 outlet;
#X obj 1204 689 outlet;
#X obj 1244 689 outlet;
#X obj 1284 689 outlet;
#X obj 1324 689 outlet;
#X obj 534 457 moses 0;
#X obj 579 477 moses 0;
#X obj 286 208 moses 100;
#X obj 211 229 moses 100;
#X obj 166 209 moses 66;
#X obj 650 209 moses 100;
#X obj 695 229 moses 100;
#X obj 409 208 moses 66;
#X obj 774 208 moses 70;
#X obj 283 457 moses 33;
#X obj 328 477 moses 66;
#X obj 654 457 moses 100;
#X obj 699 477 moses 100;
#X obj 894 457 moses 75;
#X obj 774 457 moses 60;
#X obj 819 477 moses 100;
#X obj 43 457 moses 75;
#X obj 88 477 moses 75;
#X obj 163 457 moses 25;
#X obj 208 477 moses 25, f 9;
#X obj 896 207 moses 20;
#X obj 941 227 moses 20;
#X connect 0 0 2 0;
#X connect 1 0 7 0;
#X connect 1 0 28 0;
#X connect 2 0 3 0;
#X connect 2 0 9 0;
#X connect 2 0 17 0;
#X connect 2 0 23 0;
#X connect 2 0 35 0;
#X connect 2 0 41 0;
#X connect 2 0 47 0;
#X connect 2 0 64 0;
#X connect 2 0 86 0;
#X connect 2 0 113 0;
#X connect 2 0 93 0;
#X connect 2 0 99 0;
#X connect 2 0 107 0;
#X connect 2 0 119 0;
#X connect 2 0 125 0;
#X connect 2 0 132 0;
#X connect 3 0 14 0;
#X connect 4 0 1 0;
#X connect 5 0 1 0;
#X connect 6 0 1 0;
#X connect 8 0 13 0;
#X connect 8 0 29 0;
#X connect 9 0 144 0;
#X connect 10 0 8 0;
#X connect 11 0 8 0;
#X connect 12 0 8 0;
#X connect 14 0 4 0;
#X connect 14 1 15 0;
#X connect 15 0 5 0;
#X connect 15 1 6 0;
#X connect 16 0 21 0;
#X connect 16 0 30 0;
#X connect 17 0 142 0;
#X connect 18 0 16 0;
#X connect 19 0 16 0;
#X connect 20 0 16 0;
#X connect 22 0 27 0;
#X connect 22 0 31 0;
#X connect 23 0 147 0;
#X connect 24 0 22 0;
#X connect 25 0 22 0;
#X connect 26 0 22 0;
#X connect 32 0 19 0;
#X connect 32 1 20 0;
#X connect 33 0 25 0;
#X connect 33 1 26 0;
#X connect 34 0 39 0;
#X connect 34 0 57 0;
#X connect 35 0 62 0;
#X connect 36 0 34 0;
#X connect 37 0 34 0;
#X connect 38 0 34 0;
#X connect 40 0 45 0;
#X connect 40 0 58 0;
#X connect 41 0 145 0;
#X connect 42 0 40 0;
#X connect 43 0 40 0;
#X connect 44 0 40 0;
#X connect 46 0 51 0;
#X connect 46 0 59 0;
#X connect 47 0 148 0;
#X connect 48 0 46 0;
#X connect 49 0 46 0;
#X connect 50 0 46 0;
#X connect 52 0 56 0;
#X connect 52 0 60 0;
#X connect 53 0 52 0;
#X connect 54 0 52 0;
#X connect 55 0 52 0;
#X connect 61 0 49 0;
#X connect 61 1 50 0;
#X connect 62 0 36 0;
#X connect 62 1 63 0;
#X connect 63 0 37 0;
#X connect 63 1 38 0;
#X connect 64 0 160 0;
#X connect 81 0 85 0;
#X connect 81 0 87 0;
#X connect 82 0 81 0;
#X connect 83 0 81 0;
#X connect 84 0 81 0;
#X connect 86 0 156 0;
#X connect 88 0 92 0;
#X connect 88 0 133 0;
#X connect 89 0 88 0;
#X connect 90 0 88 0;
#X connect 91 0 88 0;
#X connect 93 0 158 0;
#X connect 94 0 98 0;
#X connect 94 0 134 0;
#X connect 95 0 94 0;
#X connect 96 0 94 0;
#X connect 97 0 94 0;
#X connect 99 0 149 0;
#X connect 100 0 104 0;
#X connect 100 0 135 0;
#X connect 101 0 100 0;
#X connect 102 0 100 0;
#X connect 103 0 100 0;
#X connect 105 0 101 0;
#X connect 105 1 106 0;
#X connect 106 0 102 0;
#X connect 106 1 103 0;
#X connect 107 0 105 0;
#X connect 108 0 112 0;
#X connect 108 0 136 0;
#X connect 109 0 108 0;
#X connect 110 0 108 0;
#X connect 111 0 108 0;
#X connect 113 0 140 0;
#X connect 114 0 118 0;
#X connect 114 0 137 0;
#X connect 115 0 114 0;
#X connect 116 0 114 0;
#X connect 117 0 114 0;
#X connect 119 0 151 0;
#X connect 120 0 124 0;
#X connect 120 0 138 0;
#X connect 121 0 120 0;
#X connect 122 0 120 0;
#X connect 123 0 120 0;
#X connect 125 0 154 0;
#X connect 126 0 130 0;
#X connect 126 0 139 0;
#X connect 127 0 126 0;
#X connect 128 0 126 0;
#X connect 129 0 126 0;
#X connect 131 0 128 0;
#X connect 131 1 129 0;
#X connect 132 0 153 0;
#X connect 140 0 109 0;
#X connect 140 1 141 0;
#X connect 141 0 110 0;
#X connect 141 1 111 0;
#X connect 142 0 18 0;
#X connect 142 1 32 0;
#X connect 143 0 11 0;
#X connect 143 1 12 0;
#X connect 144 0 10 0;
#X connect 144 1 143 0;
#X connect 145 0 42 0;
#X connect 145 1 146 0;
#X connect 146 0 43 0;
#X connect 146 1 44 0;
#X connect 147 0 24 0;
#X connect 147 1 33 0;
#X connect 148 0 48 0;
#X connect 148 1 61 0;
#X connect 149 0 95 0;
#X connect 149 1 150 0;
#X connect 150 0 96 0;
#X connect 150 1 97 0;
#X connect 151 0 115 0;
#X connect 151 1 152 0;
#X connect 152 0 116 0;
#X connect 152 1 117 0;
#X connect 153 0 127 0;
#X connect 153 1 131 0;
#X connect 154 0 121 0;
#X connect 154 1 155 0;
#X connect 155 0 122 0;
#X connect 155 1 123 0;
#X connect 156 0 82 0;
#X connect 156 1 157 0;
#X connect 157 0 83 0;
#X connect 157 1 84 0;
#X connect 158 0 89 0;
#X connect 158 1 159 0;
#X connect 159 0 90 0;
#X connect 159 1 91 0;
#X connect 160 0 53 0;
#X connect 160 1 161 0;
#X connect 161 0 54 0;
#X connect 161 1 55 0;
#X coords 0 -1 1 1 370 70 1 300 50;
#X restore 1035 181 pd randomKick;
#X msg 1035 159 0;
#X obj 409 325 loadbang;
#X msg 409 346 1;
#X obj 66 574 loadbang;
#X msg 83 521 1 1 \, 0 5 5;
#X msg 265 531 280 \, 60 10;
#X msg 74 385 2000 \, 200 5 5;
#X obj 701 657 *~ 0.5;
#X obj 774 696 *~;
#X obj 809 681 tgl 15 0 empty kickSwitch empty 17 7 0 10 -262144 -1
-1 1 1;
#X obj 121 108 loadbang;
#X msg 121 129 0.7;
#X msg 66 595 0.9;
#X obj 801 749 s~ kickDac;
#X connect 0 0 1 0;
#X connect 1 0 2 0;
#X connect 1 0 48 0;
#X connect 2 0 3 0;
#X connect 2 0 5 0;
#X connect 2 0 6 0;
#X connect 3 0 2 1;
#X connect 4 0 1 1;
#X connect 5 0 7 0;
#X connect 7 0 8 0;
#X connect 7 0 73 0;
#X connect 8 0 9 0;
#X connect 9 0 10 0;
#X connect 9 1 12 0;
#X connect 9 2 14 0;
#X connect 9 3 16 0;
#X connect 9 4 18 0;
#X connect 9 5 20 0;
#X connect 9 6 22 0;
#X connect 9 7 24 0;
#X connect 9 8 26 0;
#X connect 9 9 28 0;
#X connect 9 10 30 0;
#X connect 9 11 32 0;
#X connect 9 12 34 0;
#X connect 9 13 36 0;
#X connect 9 14 38 0;
#X connect 9 15 40 0;
#X connect 10 0 63 1;
#X connect 11 0 10 1;
#X connect 12 0 63 1;
#X connect 13 0 12 1;
#X connect 14 0 63 1;
#X connect 15 0 14 1;
#X connect 16 0 63 1;
#X connect 17 0 16 1;
#X connect 18 0 63 1;
#X connect 19 0 18 1;
#X connect 20 0 63 1;
#X connect 21 0 20 1;
#X connect 22 0 63 1;
#X connect 23 0 22 1;
#X connect 24 0 63 1;
#X connect 25 0 24 1;
#X connect 26 0 63 1;
#X connect 27 0 26 1;
#X connect 28 0 63 1;
#X connect 29 0 28 1;
#X connect 30 0 63 1;
#X connect 31 0 30 1;
#X connect 32 0 63 1;
#X connect 33 0 32 1;
#X connect 34 0 63 1;
#X connect 35 0 34 1;
#X connect 36 0 63 1;
#X connect 37 0 36 1;
#X connect 38 0 63 1;
#X connect 39 0 38 1;
#X connect 40 0 63 1;
#X connect 41 0 40 1;
#X connect 42 0 87 0;
#X connect 43 0 42 1;
#X connect 44 0 45 0;
#X connect 45 0 81 0;
#X connect 46 0 45 1;
#X connect 47 0 46 0;
#X connect 48 0 79 0;
#X connect 48 0 50 0;
#X connect 48 0 60 0;
#X connect 48 0 61 0;
#X connect 49 0 44 0;
#X connect 50 0 44 1;
#X connect 51 0 52 0;
#X connect 52 0 59 0;
#X connect 53 0 52 1;
#X connect 53 0 59 1;
#X connect 54 0 52 2;
#X connect 54 0 59 2;
#X connect 55 0 81 0;
#X connect 56 0 55 1;
#X connect 57 0 58 1;
#X connect 58 0 55 0;
#X connect 59 0 58 0;
#X connect 60 0 78 0;
#X connect 60 0 80 0;
#X connect 61 0 47 0;
#X connect 61 0 79 0;
#X connect 62 0 53 0;
#X connect 63 0 82 0;
#X connect 64 0 65 0;
#X connect 65 0 54 0;
#X connect 66 0 67 0;
#X connect 67 0 68 0;
#X connect 68 0 4 0;
#X connect 69 0 70 0;
#X connect 70 0 2 0;
#X connect 73 0 11 0;
#X connect 73 1 13 0;
#X connect 73 2 15 0;
#X connect 73 3 17 0;
#X connect 73 4 19 0;
#X connect 73 5 21 0;
#X connect 73 6 23 0;
#X connect 73 7 25 0;
#X connect 73 8 27 0;
#X connect 73 9 29 0;
#X connect 73 10 31 0;
#X connect 73 11 33 0;
#X connect 73 12 35 0;
#X connect 73 13 37 0;
#X connect 73 14 39 0;
#X connect 73 15 41 0;
#X connect 74 0 73 0;
#X connect 75 0 76 0;
#X connect 76 0 11 0;
#X connect 76 0 19 0;
#X connect 76 0 27 0;
#X connect 76 0 35 0;
#X connect 77 0 86 0;
#X connect 78 0 57 0;
#X connect 79 0 49 0;
#X connect 80 0 62 0;
#X connect 81 0 63 0;
#X connect 82 0 42 0;
#X connect 83 0 82 1;
#X connect 84 0 85 0;
#X connect 85 0 71 0;
#X connect 86 0 56 0;
#X coords 0 -1 1 1 150 80 1 20 20;
