#N canvas -8 -8 1536 781 10;
#X floatatom 368 353 5 0 0 0 - - -, f 5;
#X obj 457 465 +~;
#X floatatom 494 460 5 0 0 0 - - -, f 5;
#X floatatom 556 464 5 0 0 0 - - -, f 5;
#X obj 400 717 hsl 128 15 0 1 0 0 empty volLead VOLUME 60 7 0 16 -1
-262144 -262144 2540 1;
#X obj 368 716 *~;
#X obj 368 555 osc~;
#X obj 368 692 *~;
#X obj 368 209 tabread gamme;
#X obj 368 333 mtof;
#X obj 494 419 loadbang;
#X msg 494 439 6;
#X obj 494 501 *~;
#X msg 556 438 12;
#X obj 278 737 outlet~;
#X obj 368 737 s~ dacLead;
#X obj 368 576 *~;
#X obj 368 597 clip~ -1 1;
#X obj 409 555 hsl 128 15 1 2 0 0 empty empty squarisher 15 7 0 10
-262144 -1 -1 1270 1;
#X obj 494 480 osc~;
#X obj 616 34 bng 15 250 50 0 empty ledDouble empty 17 7 0 10 -262144
-1 -1;
#X obj 616 55 f;
#X obj 646 55 + 1;
#X obj 616 75 % 4;
#X floatatom 616 96 5 0 0 0 - - -, f 5;
#X obj 556 12 r reinitChordProg;
#X msg 556 33 -1;
#X obj 526 147 t b b;
#X floatatom 989 241 5 0 0 0 - - -, f 5;
#X floatatom 368 230 5 0 0 0 - - -, f 5;
#X obj 368 258 +;
#X obj 616 116 sel 0;
#X obj 666 81 random 4;
#X obj 368 295 nbx 2 30 -1e+037 1e+037 0 0 midi_note empty midi_note
0 -12 0 20 -1 -262144 -1 70 256;
#X text 672 705 pouvoir décrocher pour "tenir" automatiser vibrato
tremolo ?;
#X obj 128 54 tgl 30 0 switchLead empty empty 17 7 0 10 -260097 -1
-1 1 1;
#X obj 39 127 hsl 200 20 0 1 0 0 volLead empty VOLUME 60 10 0 20 -1
-262144 -262144 3980 1;
#X obj 489 655 line~;
#X msg 523 635 0 100;
#X msg 485 635 1 20;
#X obj 491 579 tgl 30 0 empty switchLead empty 17 7 0 10 -260097 -1
-1 1 1;
#X obj 491 614 sel 1;
#X obj 368 406 line~;
#X text 298 396 smoother;
#X msg 368 385 \$1 20;
#X msg 406 535 1.1;
#X obj 35 53 nbx 2 30 -1e+037 1e+037 0 0 empty midi_note midi_note
0 50 0 30 -1 -262144 -1 70 256;
#X obj 489 676 *~;
#X obj 591 659 line~;
#X msg 578 635 1 20;
#X msg 619 635 0 100;
#X obj 578 593 tgl 15 0 empty on/off start 17 7 0 10 -262144 -1 -1
1 1;
#X obj 578 613 sel 1;
#X obj 614 395 - 60;
#X obj 614 416 / 24;
#X obj 614 457 + 1;
#X floatatom 614 478 5 0 0 0 - - -, f 5;
#X obj 556 484 *;
#X floatatom 556 505 5 0 0 0 - - -, f 5;
#X text 665 420 vibrato = f(pitch);
#X obj 20 165 loadbang;
#X msg 20 186 0.2;
#X obj 442 535 loadbang;
#X obj 989 135 random 100;
#X floatatom 989 154 5 0 0 0 - - -, f 5;
#X obj 989 74 % 8;
#X floatatom 989 95 5 0 0 0 - - -, f 5;
#X obj 989 115 sel 0;
#X obj 1069 84 random 8;
#X obj 1069 65 bng 15 250 50 0 empty empty empty 17 7 0 10 -262144
-1 -1;
#X obj 666 102 + 1;
#X msg 989 218 12;
#X msg 1034 218 0;
#X msg 1079 218 24;
#X obj 989 172 moses 50;
#X obj 1034 194 moses 75;
#X obj 526 168 rand 5;
#X floatatom 526 189 5 0 0 0 - - -, f 5;
#X obj 1069 105 + 8;
#X floatatom 1004 55 5 0 0 0 - - -, f 5;
#X obj 989 27 f;
#X obj 1019 27 + 1;
#X msg 1099 12 1;
#X text 1103 168 octaver cooldown de +8 doubles;
#X floatatom 796 219 5 0 0 0 - - -, f 5;
#X obj 796 113 random 100;
#X floatatom 796 132 5 0 0 0 - - -, f 5;
#X msg 796 196 12;
#X msg 841 196 0;
#X msg 886 196 24;
#X obj 796 150 moses 50;
#X obj 841 172 moses 75;
#X obj 614 437 *;
#X obj 893 461 bng 15 250 50 0 empty ledDouble empty 17 7 0 10 -159808
-1 -1;
#X obj 893 481 f;
#X obj 923 482 + 1;
#X obj 893 502 % 4;
#X obj 893 523 sel 0;
#X obj 893 565 vline~;
#X msg 893 544 1 \, 2 800;
#X text 927 503 SC squarisher;
#X obj 796 255 spigot;
#X obj 976 295 spigot;
#X obj 182 24 tgl 15 0 empty empty fullrnd 17 7 0 10 -262144 -1 -1
0 1;
#X obj 183 43 tgl 15 0 empty empty notsornd 17 7 0 10 -262144 -1 -1
0 1;
#X obj 1062 344 sel 0 12 24;
#X obj 1049 388 bng 15 1000 250 0 oct0 empty oct_0 0 20 0 10 -262144
-1 -1;
#X obj 1083 388 bng 15 1000 250 0 oct1 empty oct_1 0 20 0 10 -262144
-1 -1;
#X obj 1116 388 bng 15 1000 250 0 oct2 empty oct_2 0 20 0 10 -262144
-1 -1;
#X obj 210 64 bng 15 1000 250 0 empty oct0 oct_0 17 7 0 10 -260097
-1 -1;
#X obj 210 83 bng 15 1000 250 0 empty oct1 oct_1 17 7 0 10 -260097
-1 -1;
#X obj 210 101 bng 15 1000 250 0 empty oct2 oct_2 17 7 0 10 -260097
-1 -1;
#X obj 961 228 bng 15 250 50 0 empty ledDouble empty 17 7 0 10 -262144
-1 -1;
#X connect 0 0 44 0;
#X connect 1 0 6 0;
#X connect 2 0 19 0;
#X connect 3 0 57 1;
#X connect 4 0 5 1;
#X connect 5 0 14 0;
#X connect 5 0 15 0;
#X connect 6 0 16 0;
#X connect 7 0 5 0;
#X connect 8 0 29 0;
#X connect 9 0 0 0;
#X connect 10 0 11 0;
#X connect 10 0 13 0;
#X connect 11 0 2 0;
#X connect 12 0 1 1;
#X connect 13 0 3 0;
#X connect 16 0 17 0;
#X connect 17 0 7 0;
#X connect 18 0 16 1;
#X connect 19 0 12 0;
#X connect 20 0 21 0;
#X connect 20 0 80 0;
#X connect 21 0 22 0;
#X connect 21 0 23 0;
#X connect 22 0 21 1;
#X connect 23 0 24 0;
#X connect 24 0 31 0;
#X connect 25 0 26 0;
#X connect 26 0 21 0;
#X connect 26 0 80 0;
#X connect 27 0 76 0;
#X connect 27 1 85 0;
#X connect 28 0 102 0;
#X connect 29 0 30 0;
#X connect 30 0 33 0;
#X connect 31 0 27 0;
#X connect 31 0 32 0;
#X connect 32 0 70 0;
#X connect 33 0 9 0;
#X connect 33 0 53 0;
#X connect 37 0 47 0;
#X connect 38 0 37 0;
#X connect 39 0 37 0;
#X connect 40 0 41 0;
#X connect 41 0 39 0;
#X connect 41 1 38 0;
#X connect 42 0 1 0;
#X connect 44 0 42 0;
#X connect 45 0 18 0;
#X connect 47 0 7 1;
#X connect 48 0 47 1;
#X connect 49 0 48 0;
#X connect 50 0 48 0;
#X connect 51 0 52 0;
#X connect 52 0 49 0;
#X connect 52 1 50 0;
#X connect 53 0 54 0;
#X connect 54 0 92 0;
#X connect 55 0 56 0;
#X connect 56 0 57 0;
#X connect 57 0 58 0;
#X connect 58 0 12 1;
#X connect 60 0 61 0;
#X connect 61 0 36 0;
#X connect 62 0 45 0;
#X connect 63 0 64 0;
#X connect 64 0 74 0;
#X connect 65 0 66 0;
#X connect 66 0 67 0;
#X connect 67 0 63 0;
#X connect 67 0 69 0;
#X connect 68 0 78 0;
#X connect 69 0 68 0;
#X connect 69 0 82 0;
#X connect 70 0 23 1;
#X connect 71 0 28 0;
#X connect 72 0 28 0;
#X connect 73 0 28 0;
#X connect 74 0 71 0;
#X connect 74 1 75 0;
#X connect 75 0 72 0;
#X connect 75 1 73 0;
#X connect 76 0 77 0;
#X connect 77 0 8 0;
#X connect 78 0 79 0;
#X connect 79 0 65 1;
#X connect 80 0 81 0;
#X connect 80 0 65 0;
#X connect 81 0 80 1;
#X connect 82 0 80 0;
#X connect 84 0 101 0;
#X connect 85 0 86 0;
#X connect 86 0 90 0;
#X connect 87 0 84 0;
#X connect 88 0 84 0;
#X connect 89 0 84 0;
#X connect 90 0 87 0;
#X connect 90 1 91 0;
#X connect 91 0 88 0;
#X connect 91 1 89 0;
#X connect 92 0 55 0;
#X connect 93 0 94 0;
#X connect 94 0 95 0;
#X connect 94 0 96 0;
#X connect 95 0 94 1;
#X connect 96 0 97 0;
#X connect 97 0 99 0;
#X connect 98 0 16 1;
#X connect 99 0 98 0;
#X connect 101 0 30 1;
#X connect 101 0 105 0;
#X connect 102 0 30 1;
#X connect 102 0 105 0;
#X connect 103 0 101 1;
#X connect 104 0 102 1;
#X connect 105 0 106 0;
#X connect 105 1 107 0;
#X connect 105 2 108 0;
#X connect 112 0 28 0;
#X coords 0 -1 1 1 240 140 1 20 20;
