#N canvas 548 228 818 471 10;
#X floatatom 337 114 5 0 0 0 - - -, f 5;
#X obj 337 133 sel 0 1 2 3;
#X obj 193 180 bng 15 250 50 0 do empty do 17 7 0 10 -262144 -1 -1
;
#X obj 299 179 bng 15 250 50 0 re empty Ré 17 7 0 10 -262144 -1 -1
;
#X obj 394 180 bng 15 250 50 0 fa empty Fa 17 7 0 10 -262144 -1 -1
;
#X obj 501 180 bng 15 250 50 0 mi empty Mi_7 17 7 0 10 -262144 -1 -1
;
#X obj 193 210 random 100;
#X obj 193 231 moses 50;
#X msg 193 252 1;
#X msg 238 252 2;
#X obj 299 210 random 100;
#X obj 299 231 moses 50;
#X obj 394 210 random 100;
#X obj 394 231 moses 50;
#X obj 501 210 random 100;
#X obj 501 231 moses 50;
#X msg 501 252 1;
#X msg 299 252 2;
#X msg 344 252 3;
#X msg 394 252 0;
#X msg 439 252 3;
#X msg 546 252 0;
#X obj 337 94 int;
#X obj 329 36 bng 15 250 50 0 empty empty empty 17 7 0 10 -262144 -1
-1;
#X obj 373 323 s markov;
#X obj 369 68 r markov;
#X obj 197 30 inlet;
#X text 359 26 hit the bang to switch to the next chord;
#X connect 0 0 1 0;
#X connect 1 0 2 0;
#X connect 1 1 3 0;
#X connect 1 2 4 0;
#X connect 1 3 5 0;
#X connect 2 0 6 0;
#X connect 3 0 10 0;
#X connect 4 0 12 0;
#X connect 5 0 14 0;
#X connect 6 0 7 0;
#X connect 7 0 8 0;
#X connect 7 1 9 0;
#X connect 8 0 24 0;
#X connect 9 0 24 0;
#X connect 10 0 11 0;
#X connect 11 0 17 0;
#X connect 11 1 18 0;
#X connect 12 0 13 0;
#X connect 13 0 19 0;
#X connect 13 1 20 0;
#X connect 14 0 15 0;
#X connect 15 0 16 0;
#X connect 15 1 21 0;
#X connect 16 0 24 0;
#X connect 17 0 24 0;
#X connect 18 0 24 0;
#X connect 19 0 24 0;
#X connect 20 0 24 0;
#X connect 21 0 24 0;
#X connect 22 0 0 0;
#X connect 23 0 22 0;
#X connect 25 0 22 1;
#X connect 26 0 23 0;
